<?xml version="1.0" encoding="UTF-8" standalone="no"?>
<svg width="840px" height="1188px" version="1.1" xmlns="http://www.w3.org/2000/svg" xmlns:xlink="http://www.w3.org/1999/xlink" overflow="visible">
	<defs>
		<symbol id="E050" viewBox="0 0 1000 1000" overflow="inherit">
			<g transform="scale(1,-1)">
				<path d="M441 -245c-23 -4 -48 -6 -76 -6c-59 0 -102 7 -130 20c-88 42 -150 93 -187 154c-26 44 -43 103 -48 176c-4 60 11 123 44 189c29 57 65 106 110 148s96 85 153 127c-3 16 -8 46 -13 92c-4 43 -5 73 -5 89c0 117 16 172 69 257c34 54 64 82 89 82c21 0 43 -30 69 -92 s39 -115 41 -159c2 -120 -19 -173 -67 -256c-13 -20 -63 -90 -98 -118c-13 -9 -25 -19 -37 -29l31 -181c8 1 18 2 28 2c58 0 102 -12 133 -35c59 -43 92 -104 98 -184c11 -135 -80 -229 -180 -270c8 -57 17 -110 25 -162c5 -31 6 -58 6 -80c0 -30 -5 -53 -14 -70 c-35 -64 -88 -99 -158 -103c-42 -3 -83 6 -124 26c-50 24 -77 59 -80 105c-2 34 5 63 20 87c18 28 45 42 79 44c51 4 99 -40 103 -87c4 -56 -30 -94 -105 -115c17 -24 51 -36 102 -36c62 0 116 43 140 85c9 16 13 41 13 74c0 20 -1 42 -5 67c-8 53 -18 106 -26 159zM461 939 c-95 0 -135 -175 -135 -286c0 -24 2 -48 5 -71c50 39 92 82 127 128c43 57 63 106 60 148c-4 54 -23 82 -57 81zM406 119l54 -326c80 27 116 88 109 184c-7 99 -62 146 -163 142zM382 117c-74 -2 -132 -50 -128 -127c2 -46 43 -99 75 -115c-3 -2 -7 -5 -10 -10 c-70 33 -116 88 -123 172c-5 73 42 135 88 170c23 17 49 29 78 36l-29 170c-21 -13 -52 -37 -92 -73c-50 -44 -86 -84 -109 -119c-49 -75 -71 -140 -67 -195c5 -68 35 -127 93 -176s125 -73 203 -73c25 0 50 3 75 9c-19 111 -36 221 -54 331z" />
			</g>
		</symbol>
		<symbol id="E084" viewBox="0 0 1000 1000" overflow="inherit">
			<g transform="scale(1,-1)">
				<path d="M0 -78c84 97 114 180 134 329h170c-13 -32 -82 -132 -99 -151l-84 -97c-33 -36 -59 -63 -80 -81h162v102l127 123v-225h57v-39h-57v-34c0 -43 19 -65 57 -65v-34h-244v36c48 0 60 26 60 70v27h-203v39z" />
			</g>
		</symbol>
		<symbol id="E0A4" viewBox="0 0 1000 1000" overflow="inherit">
			<g transform="scale(1,-1)">
				<path d="M0 -39c0 68 73 172 200 172c66 0 114 -37 114 -95c0 -84 -106 -171 -218 -171c-64 0 -96 30 -96 94z" />
			</g>
		</symbol>
	</defs>
	<svg id="definition-scale" viewBox="0 0 21000 29700">
		<g class="page-margin" transform="translate(500, 500)" style="stroke: #000; stroke-opacity: 1.0; fill: #000; fill-opacity: 1.0">
			<g class="system" id="system-000000021388562">
				<path d="M0 1925 L0 2675" style="stroke-width: 30;" />
				<g class="measure" id="measure-000000111586773">
					<g class="staff" id="staff-000000006929934">
						<path d="M0 1940 L4811 1940" style="stroke-width: 30;" />
						<path d="M0 2120 L4811 2120" style="stroke-width: 30;" />
						<path d="M0 2300 L4811 2300" style="stroke-width: 30;" />
						<path d="M0 2480 L4811 2480" style="stroke-width: 30;" />
						<path d="M0 2660 L4811 2660" style="stroke-width: 30;" />
						<g class="layer" id="layer-000000077793793">
							<g class="clef" id="clef-000000108510260">
								<use xlink:href="#E050" x="90" y="2480" height="720px" width="720px" />
							</g>
							<g class="meterSig" id="msig-000000147675634">
								<use xlink:href="#E084" x="825" y="2120" height="720px" width="720px" />
								<use xlink:href="#E084" x="825" y="2480" height="720px" width="720px" />
							</g>
							<g class="beam" id="beam-000000032432252">
								<g class="note" id="v1e01">
									<use xlink:href="#E0A4" x="1463" y="2390" height="720px" width="720px" />
								</g>
								<g class="note" id="v1e02">
									<use xlink:href="#E0A4" x="1933" y="2840" height="720px" width="720px" />
									<path d="M1884 2840 L2208 2840" style="stroke-width: 30;" />
								</g>
								<g class="note" id="v1e03">
									<use xlink:href="#E0A4" x="2403" y="2660" height="720px" width="720px" />
								</g>
								<g class="note" id="v1e04">
									<use xlink:href="#E0A4" x="2853" y="2390" height="720px" width="720px" />
								</g>
								<path d="M1679 2368 L1679 1780" style="stroke-width: 20;" />
								<path d="M2149 2818 L2149 1764" style="stroke-width: 20;" />
								<path d="M2619 2638 L2619 1747" style="stroke-width: 20;" />
								<path d="M3069 2368 L3069 1731" style="stroke-width: 20;" />
								<polygon style="fill-rule:nonzero;" stroke-width="0" points="1669,1760 3079,1711 3079,1801 1669,1850 " />
							</g>
							<g class="note" id="v1e05">
								<use xlink:href="#E0A4" x="3303" y="2480" height="720px" width="720px" />
								<rect x="3509" y="1850" width="20" height="608" rx="0" style="stroke-width: 0;" />
							</g>
							<g class="note" id="v1e06">
								<use xlink:href="#E0A4" x="3993" y="2570" height="720px" width="720px" />
								<rect x="4199" y="1940" width="20" height="608" rx="0" style="stroke-width: 0;" />
							</g>
						</g>
					</g>
					<g class="barlineAttr" id="bline-000000087895575">
						<path d="M4796 1925 L4796 2675" style="stroke-width: 30;" />
					</g>
				</g>
				<g class="measure" id="measure-000000113850910">
					<g class="staff" id="staff-000000124607432">
						<path d="M4811 1940 L8603 1940" style="stroke-width: 30;" />
						<path d="M4811 2120 L8603 2120" style="stroke-width: 30;" />
						<path d="M4811 2300 L8603 2300" style="stroke-width: 30;" />
						<path d="M4811 2480 L8603 2480" style="stroke-width: 30;" />
						<path d="M4811 2660 L8603 2660" style="stroke-width: 30;" />
						<g class="layer" id="layer-000000051057069">
							<g class="beam" id="beam-000000009139032">
								<g class="note" id="v1e07">
									<use xlink:href="#E0A4" x="5171" y="2660" height="720px" width="720px" />
								</g>
								<g class="note" id="v1e08">
									<use xlink:href="#E0A4" x="5641" y="3020" height="720px" width="720px" />
									<path d="M5592 2840 L5916 2840" style="stroke-width: 30;" />
									<path d="M5592 3020 L5916 3020" style="stroke-width: 30;" />
								</g>
								<g class="note" id="v1e09">
									<use xlink:href="#E0A4" x="6175" y="2840" height="720px" width="720px" />
									<path d="M6126 2840 L6450 2840" style="stroke-width: 30;" />
								</g>
								<g class="note" id="v1e10">
									<use xlink:href="#E0A4" x="6645" y="2570" height="720px" width="720px" />
								</g>
								<path d="M5387 2638 L5387 2050" style="stroke-width: 20;" />
								<path d="M5857 2998 L5857 2007" style="stroke-width: 20;" />
								<path d="M6391 2818 L6391 1957" style="stroke-width: 20;" />
								<path d="M6861 2548 L6861 1913" style="stroke-width: 20;" />
								<polygon style="fill-rule:nonzero;" stroke-width="0" points="5377,2030 6871,1893 6871,1983 5377,2120 " />
							</g>
							<g class="note" id="v1e11">
								<use xlink:href="#E0A4" x="7095" y="2660" height="720px" width="720px" />
								<rect x="7301" y="2030" width="20" height="608" rx="0" style="stroke-width: 0;" />
							</g>
							<g class="note" id="v1e12">
								<use xlink:href="#E0A4" x="7785" y="2750" height="720px" width="720px" />
								<rect x="7991" y="2120" width="20" height="608" rx="0" style="stroke-width: 0;" />
							</g>
						</g>
					</g>
					<g class="slur" id="slur-000000154253222" />
					<g class="slur" id="slur-000000091646857" />
					<g class="slur" id="slur-000000133453970" />
					<g class="barlineAttr" id="bline-000000079955085">
						<path d="M8588 1925 L8588 2675" style="stroke-width: 30;" />
					</g>
				</g>
				<g class="measure" id="measure-000000128962947">
					<g class="staff" id="staff-000000082134487">
						<path d="M8603 1940 L12395 1940" style="stroke-width: 30;" />
						<path d="M8603 2120 L12395 2120" style="stroke-width: 30;" />
						<path d="M8603 2300 L12395 2300" style="stroke-width: 30;" />
						<path d="M8603 2480 L12395 2480" style="stroke-width: 30;" />
						<path d="M8603 2660 L12395 2660" style="stroke-width: 30;" />
						<g class="layer" id="layer-000000031844801">
							<g class="beam" id="beam-000000142425327">
								<g class="note" id="v1e13">
									<use xlink:href="#E0A4" x="8963" y="2660" height="720px" width="720px" />
								</g>
								<g class="note" id="v1e14">
									<use xlink:href="#E0A4" x="9433" y="3020" height="720px" width="720px" />
									<path d="M9384 2840 L9708 2840" style="stroke-width: 30;" />
									<path d="M9384 3020 L9708 3020" style="stroke-width: 30;" />
								</g>
								<g class="note" id="v1e15">
									<use xlink:href="#E0A4" x="9967" y="2840" height="720px" width="720px" />
									<path d="M9918 2840 L10242 2840" style="stroke-width: 30;" />
								</g>
								<g class="note" id="v1e16">
									<use xlink:href="#E0A4" x="10437" y="2570" height="720px" width="720px" />
								</g>
								<path d="M9179 2638 L9179 2050" style="stroke-width: 20;" />
								<path d="M9649 2998 L9649 2007" style="stroke-width: 20;" />
								<path d="M10183 2818 L10183 1957" style="stroke-width: 20;" />
								<path d="M10653 2548 L10653 1913" style="stroke-width: 20;" />
								<polygon style="fill-rule:nonzero;" stroke-width="0" points="9169,2030 10663,1893 10663,1983 9169,2120 " />
							</g>
							<g class="note" id="v1e17">
								<use xlink:href="#E0A4" x="10887" y="2660" height="720px" width="720px" />
								<rect x="11093" y="2030" width="20" height="608" rx="0" style="stroke-width: 0;" />
							</g>
							<g class="note" id="v1e18">
								<use xlink:href="#E0A4" x="11577" y="2750" height="720px" width="720px" />
								<rect x="11783" y="2120" width="20" height="608" rx="0" style="stroke-width: 0;" />
							</g>
						</g>
					</g>
					<g class="slur" id="slur-000000153459174" />
					<g class="slur" id="slur-000000060484093" />
					<g class="slur" id="slur-000000152154371" />
					<g class="barlineAttr" id="bline-000000045952118">
						<path d="M12380 1925 L12380 2675" style="stroke-width: 30;" />
					</g>
				</g>
			</g>
		</g>
	</svg>
</svg>
