<?xml version="1.0" encoding="UTF-8" standalone="no"?>
<svg width="840px" height="1188px" version="1.1" xmlns="http://www.w3.org/2000/svg" xmlns:xlink="http://www.w3.org/1999/xlink" overflow="visible">
	<defs>
		<symbol id="E882" viewBox="0 0 1000 1000" overflow="inherit">
			<g transform="scale(1,-1)">
				<path d="M166 311c60 0 94 -21 94 -80c0 -27 -12 -51 -40 -64l-70 -32c-37 -10 -69 -30 -96 -60h21l26 -2l12 -6c14 -6 28 -11 42 -17c6 -3 13 -4 21 -4l15 4l11 8c5 5 11 13 19 26l17 -9l-16 -28c-2 -4 -16 -28 -20 -31c-19 -21 -38 -31 -57 -31h-10c-13 6 -25 12 -36 20l-15 11 c-12 7 -23 10 -32 10c-10 -3 -19 -8 -24 -17l-5 -9h-23c0 27 6 51 20 72c7 10 14 16 19 21l28 25c20 11 40 22 59 33l19 9c16 7 29 18 39 30c12 15 19 30 19 45l1 12c0 13 -4 24 -12 31c-6 9 -15 14 -28 14c-29 0 -46 -15 -52 -44l3 -12l2 -16c0 -20 -8 -29 -25 -29 c-14 0 -26 13 -26 28c0 48 52 92 100 92z" />
			</g>
		</symbol>
		<symbol id="E4E5" viewBox="0 0 1000 1000" overflow="inherit">
			<g transform="scale(1,-1)">
				<path d="M107 292c-13 24 -30 49 -52 71c-1 1 0 2 0 3l-2 2c3 3 4 4 6 4c12 0 26 -7 40 -20s44 -40 89 -81c26 -24 28 -29 46 -47c4 -4 8 -9 10 -14c6 -8 8 -16 8 -27c0 -19 -12 -40 -36 -61c-28 -23 -49 -38 -61 -73c-4 -11 -7 -27 -10 -50c13 -43 34 -83 59 -121 c31 -47 59 -79 101 -129c-8 0 -26 7 -54 20l-62 29l-21 6l-23 1c-25 0 -45 -10 -60 -30l-4 -14l-1 -12c0 -33 20 -56 39 -78c8 -9 17 -18 26 -26c17 -15 27 -24 28 -30l-3 -3c-11 5 -19 10 -25 15c-9 3 -37 21 -45 26c-24 14 -45 32 -63 51c-19 21 -37 44 -37 71 c0 63 27 95 80 95c41 0 86 -18 136 -52c-19 26 -37 48 -55 66c-23 23 -48 44 -73 65c-28 23 -47 40 -58 53s-17 26 -18 39c75 64 113 125 113 183c0 27 -7 48 -18 68z" />
			</g>
		</symbol>
		<symbol id="E4E6" viewBox="0 0 1000 1000" overflow="inherit">
			<g transform="scale(1,-1)">
				<path d="M0 123c7 34 33 56 69 60c29 -3 43 -9 53 -29c4 -8 7 -15 10 -22c0 -21 -1 -25 -11 -35c-5 -8 -18 -14 -40 -20l12 -3l15 -1c44 0 97 26 122 56c10 11 18 26 24 42c7 1 15 2 22 3l-140 -424h-36l111 330c-10 -6 -27 -12 -53 -16l-52 -8h-10l-20 1c-1 0 -8 3 -21 6 c-37 9 -55 28 -55 60z" />
			</g>
		</symbol>
		<symbol id="E0A4" viewBox="0 0 1000 1000" overflow="inherit">
			<g transform="scale(1,-1)">
				<path d="M0 -39c0 68 73 172 200 172c66 0 114 -37 114 -95c0 -84 -106 -171 -218 -171c-64 0 -96 30 -96 94z" />
			</g>
		</symbol>
		<symbol id="E240" viewBox="0 0 1000 1000" overflow="inherit">
			<g transform="scale(1,-1)">
				<path d="M206 -548c24 34 49 94 49 152c0 105 -80 173 -168 200c-18 5 -47 11 -87 18v176c16 -13 34 -28 53 -45c4 -3 38 -35 101 -94c62 -58 122 -137 122 -241c0 -37 -8 -74 -23 -111c-14 -35 -22 -53 -44 -79c-6 -5 -10 -7 -13 -7s-5 2 -5 5l4 10c1 3 5 9 11 16z" />
			</g>
		</symbol>
		<symbol id="E260" viewBox="0 0 1000 1000" overflow="inherit">
			<g transform="scale(1,-1)">
				<path d="M20 110c32 16 54 27 93 27c26 0 35 -3 54 -13c13 -7 24 -20 27 -38l4 -25c0 -28 -16 -57 -45 -89c-23 -25 -39 -44 -65 -68l-88 -79v644h20v-359zM90 106c-32 0 -48 -10 -70 -29v-194c31 31 54 59 71 84c21 32 32 59 32 84c0 9 1 16 1 20c0 14 -3 21 -11 30l-8 3z" />
			</g>
		</symbol>
		<symbol id="E241" viewBox="0 0 1000 1000" overflow="inherit">
			<g transform="scale(1,-1)">
				<path d="M253 493c16 -37 23 -74 23 -111c0 -45 -12 -89 -35 -132c-20 -37 -49 -74 -87 -109c-48 -46 -104 -100 -154 -139v176c40 7 69 13 87 18c88 27 168 95 168 200c0 58 -24 118 -49 152c-5 7 -12 16 -15 26c0 3 2 5 5 5s7 -2 13 -7c19 -23 28 -43 44 -79z" />
			</g>
		</symbol>
	</defs>
	<svg id="definition-scale" viewBox="0 0 21000 29700">
		<g class="page-margin" transform="translate(500, 500)" style="stroke: #000; stroke-opacity: 1.0; fill: #000; fill-opacity: 1.0">
			<g class="system" id="system-000000199487861">
				<use xlink:href="#E882" x="0" y="1220" height="720px" width="720px" />
				<g class="measure" id="measure-000000005027576">
					<g class="staff" id="staff-000000071404275">
						<path d="M0 1940 L3173 1940" style="stroke-width: 30;" />
						<path d="M0 2120 L3173 2120" style="stroke-width: 30;" />
						<path d="M0 2300 L3173 2300" style="stroke-width: 30;" />
						<path d="M0 2480 L3173 2480" style="stroke-width: 30;" />
						<path d="M0 2660 L3173 2660" style="stroke-width: 30;" />
						<g class="layer" id="layer-000000077803107">
							<g class="rest" id="op36-e14">
								<use xlink:href="#E4E5" x="360" y="2300" height="720px" width="720px" />
							</g>
							<g class="rest" id="op36-e15">
								<use xlink:href="#E4E6" x="1260" y="2300" height="720px" width="720px" />
							</g>
							<g class="rest" id="op36-e16">
								<use xlink:href="#E4E5" x="1710" y="2300" height="720px" width="720px" />
							</g>
							<g class="note" id="op36-e17">
								<use xlink:href="#E0A4" x="2610" y="2570" height="720px" width="720px" />
								<rect x="2816" y="2030" width="20" height="518" rx="0" style="stroke-width: 0;" />
								<use xlink:href="#E240" x="2816" y="1940" height="720px" width="720px" />
							</g>
						</g>
					</g>
					<g class="staff" id="staff-000000090281995">
						<path d="M0 4100 L3173 4100" style="stroke-width: 30;" />
						<path d="M0 4280 L3173 4280" style="stroke-width: 30;" />
						<path d="M0 4460 L3173 4460" style="stroke-width: 30;" />
						<path d="M0 4640 L3173 4640" style="stroke-width: 30;" />
						<path d="M0 4820 L3173 4820" style="stroke-width: 30;" />
						<g class="layer" id="layer-000000172305124">
							<g class="beam" id="beam-000000105890495">
								<g class="note" id="op36-e18">
									<use xlink:href="#E0A4" x="360" y="4730" height="720px" width="720px" />
								</g>
								<g class="note" id="op36-e19">
									<use xlink:href="#E0A4" x="810" y="4730" height="720px" width="720px" />
								</g>
								<g class="note" id="op36-e20">
									<use xlink:href="#E0A4" x="1260" y="4730" height="720px" width="720px" />
									<g class="tie" id="tie-000000154919201">
										<path d="M1373,4874 C1485,5074 1709,5074 1823,4874 C1709,5014 1485,5014 1373,4874" style="fill-opacity:1.0; stroke-linecap:round; stroke-linejoin:round; stroke-opacity:1.0; stroke-width: 10" />
									</g>
								</g>
								<path d="M576 4708 L576 4120" style="stroke-width: 20;" />
								<path d="M1026 4708 L1026 4120" style="stroke-width: 20;" />
								<path d="M1476 4708 L1476 4120" style="stroke-width: 20;" />
								<polygon style="fill-rule:nonzero;" stroke-width="0" points="566,4100 1486,4100 1486,4190 566,4190 " />
							</g>
							<g class="beam" id="beam-000000083288836">
								<g class="note" id="op36-e21">
									<use xlink:href="#E0A4" x="1710" y="4730" height="720px" width="720px" />
								</g>
								<g class="note" id="op36-e22">
									<use xlink:href="#E0A4" x="2160" y="4730" height="720px" width="720px" />
								</g>
								<g class="note" id="op36-e23">
									<use xlink:href="#E0A4" x="2610" y="4730" height="720px" width="720px" />
									<g class="tie" id="tie-000000117849349">
										<path d="M2723,4874 C2953,5104 3413,5104 3646,4874 C3413,5044 2953,5044 2723,4874" style="fill-opacity:1.0; stroke-linecap:round; stroke-linejoin:round; stroke-opacity:1.0; stroke-width: 10" />
									</g>
								</g>
								<path d="M1926 4708 L1926 4120" style="stroke-width: 20;" />
								<path d="M2376 4708 L2376 4120" style="stroke-width: 20;" />
								<path d="M2826 4708 L2826 4120" style="stroke-width: 20;" />
								<polygon style="fill-rule:nonzero;" stroke-width="0" points="1916,4100 2836,4100 2836,4190 1916,4190 " />
							</g>
						</g>
					</g>
					<g class="staff" id="staff-000000023365821">
						<path d="M0 6260 L3173 6260" style="stroke-width: 30;" />
						<path d="M0 6440 L3173 6440" style="stroke-width: 30;" />
						<path d="M0 6620 L3173 6620" style="stroke-width: 30;" />
						<path d="M0 6800 L3173 6800" style="stroke-width: 30;" />
						<path d="M0 6980 L3173 6980" style="stroke-width: 30;" />
						<g class="layer" id="layer-000000149354640">
							<g class="beam" id="beam-000000072971921">
								<g class="note" id="op36-e24">
									<use xlink:href="#E0A4" x="360" y="6980" height="720px" width="720px" />
								</g>
								<g class="note" id="op36-e25">
									<use xlink:href="#E0A4" x="810" y="6980" height="720px" width="720px" />
								</g>
								<g class="note" id="op36-e26">
									<use xlink:href="#E0A4" x="1260" y="6980" height="720px" width="720px" />
								</g>
								<path d="M576 6958 L576 6370" style="stroke-width: 20;" />
								<path d="M1026 6958 L1026 6370" style="stroke-width: 20;" />
								<path d="M1476 6958 L1476 6370" style="stroke-width: 20;" />
								<polygon style="fill-rule:nonzero;" stroke-width="0" points="566,6350 1486,6350 1486,6440 566,6440 " />
							</g>
							<g class="beam" id="beam-000000030950848">
								<g class="note" id="op36-e27">
									<use xlink:href="#E0A4" x="1710" y="6980" height="720px" width="720px" />
								</g>
								<g class="note" id="op36-e28">
									<use xlink:href="#E0A4" x="2160" y="6980" height="720px" width="720px" />
								</g>
								<g class="note" id="op36-e29">
									<use xlink:href="#E0A4" x="2610" y="6980" height="720px" width="720px" />
								</g>
								<path d="M1926 6958 L1926 6370" style="stroke-width: 20;" />
								<path d="M2376 6958 L2376 6370" style="stroke-width: 20;" />
								<path d="M2826 6958 L2826 6370" style="stroke-width: 20;" />
								<polygon style="fill-rule:nonzero;" stroke-width="0" points="1916,6350 2836,6350 2836,6440 1916,6440 " />
							</g>
						</g>
					</g>
				</g>
				<g class="measure" id="measure-000000137884856">
					<g class="staff" id="staff-000000069236692">
						<path d="M3173 1940 L6818 1940" style="stroke-width: 30;" />
						<path d="M3173 2120 L6818 2120" style="stroke-width: 30;" />
						<path d="M3173 2300 L6818 2300" style="stroke-width: 30;" />
						<path d="M3173 2480 L6818 2480" style="stroke-width: 30;" />
						<path d="M3173 2660 L6818 2660" style="stroke-width: 30;" />
						<g class="layer" id="layer-000000154457625">
							<g class="note" id="op36-e30">
								<use xlink:href="#E0A4" x="3533" y="2390" height="720px" width="720px" />
								<rect x="3739" y="1760" width="20" height="608" rx="0" style="stroke-width: 0;" />
							</g>
							<g class="note" id="op36-e31">
								<use xlink:href="#E0A4" x="4433" y="2570" height="720px" width="720px" />
								<rect x="4639" y="2030" width="20" height="518" rx="0" style="stroke-width: 0;" />
								<use xlink:href="#E240" x="4639" y="1940" height="720px" width="720px" />
							</g>
							<g class="note" id="op36-e32">
								<use xlink:href="#E0A4" x="5017" y="2300" height="720px" width="720px" />
								<rect x="5017" y="2322" width="20" height="608" rx="0" style="stroke-width: 0;" />
							</g>
							<g class="note" id="op36-e33">
								<use xlink:href="#E0A4" x="6255" y="2480" height="720px" width="720px" />
								<rect x="6461" y="1940" width="20" height="518" rx="0" style="stroke-width: 0;" />
								<use xlink:href="#E240" x="6461" y="1850" height="720px" width="720px" />
								<g class="accid" id="accid-000000200880026">
									<use xlink:href="#E260" x="6042" y="2480" height="720px" width="720px" />
								</g>
							</g>
						</g>
					</g>
					<g class="staff" id="staff-000000141041147">
						<path d="M3173 4100 L6818 4100" style="stroke-width: 30;" />
						<path d="M3173 4280 L6818 4280" style="stroke-width: 30;" />
						<path d="M3173 4460 L6818 4460" style="stroke-width: 30;" />
						<path d="M3173 4640 L6818 4640" style="stroke-width: 30;" />
						<path d="M3173 4820 L6818 4820" style="stroke-width: 30;" />
						<g class="layer" id="layer-000000086116473">
							<g class="beam" id="beam-000000213663252">
								<g class="note" id="op36-e34">
									<use xlink:href="#E0A4" x="3533" y="4730" height="720px" width="720px" />
								</g>
								<g class="note" id="op36-e35">
									<use xlink:href="#E0A4" x="3983" y="4730" height="720px" width="720px" />
								</g>
								<g class="note" id="op36-e36">
									<use xlink:href="#E0A4" x="4433" y="4730" height="720px" width="720px" />
									<g class="tie" id="tie-000000069842695">
										<path d="M4546,4874 C4692,5074 4984,5074 5130,4874 C4984,5014 4692,5014 4546,4874" style="fill-opacity:1.0; stroke-linecap:round; stroke-linejoin:round; stroke-opacity:1.0; stroke-width: 10" />
									</g>
								</g>
								<path d="M3749 4708 L3749 4120" style="stroke-width: 20;" />
								<path d="M4199 4708 L4199 4120" style="stroke-width: 20;" />
								<path d="M4649 4708 L4649 4120" style="stroke-width: 20;" />
								<polygon style="fill-rule:nonzero;" stroke-width="0" points="3739,4100 4659,4100 4659,4190 3739,4190 " />
							</g>
							<g class="beam" id="beam-000000117227329">
								<g class="note" id="op36-e37">
									<use xlink:href="#E0A4" x="5017" y="4730" height="720px" width="720px" />
								</g>
								<g class="note" id="op36-e38">
									<use xlink:href="#E0A4" x="5636" y="4640" height="720px" width="720px" />
									<g class="accid" id="accid-000000131567298">
										<use xlink:href="#E260" x="5423" y="4640" height="720px" width="720px" />
									</g>
								</g>
								<g class="note" id="op36-e39">
									<use xlink:href="#E0A4" x="6255" y="4640" height="720px" width="720px" />
									<g class="accid" id="accid-000000202417896">
										<use xlink:href="#E260" x="6042" y="4640" height="720px" width="720px" />
									</g>
								</g>
								<path d="M5233 4708 L5233 4075" style="stroke-width: 20;" />
								<path d="M5852 4618 L5852 4030" style="stroke-width: 20;" />
								<path d="M6471 4618 L6471 3985" style="stroke-width: 20;" />
								<polygon style="fill-rule:nonzero;" stroke-width="0" points="5223,4055 6481,3965 6481,4055 5223,4145 " />
							</g>
						</g>
					</g>
					<g class="staff" id="staff-000000167082169">
						<path d="M3173 6260 L6818 6260" style="stroke-width: 30;" />
						<path d="M3173 6440 L6818 6440" style="stroke-width: 30;" />
						<path d="M3173 6620 L6818 6620" style="stroke-width: 30;" />
						<path d="M3173 6800 L6818 6800" style="stroke-width: 30;" />
						<path d="M3173 6980 L6818 6980" style="stroke-width: 30;" />
						<g class="layer" id="layer-000000100397565">
							<g class="beam" id="beam-000000086522100">
								<g class="note" id="op36-e40">
									<use xlink:href="#E0A4" x="3533" y="6980" height="720px" width="720px" />
								</g>
								<g class="note" id="op36-e41">
									<use xlink:href="#E0A4" x="3983" y="6980" height="720px" width="720px" />
								</g>
								<g class="note" id="op36-e42">
									<use xlink:href="#E0A4" x="4433" y="6980" height="720px" width="720px" />
								</g>
								<path d="M3749 6958 L3749 6370" style="stroke-width: 20;" />
								<path d="M4199 6958 L4199 6370" style="stroke-width: 20;" />
								<path d="M4649 6958 L4649 6370" style="stroke-width: 20;" />
								<polygon style="fill-rule:nonzero;" stroke-width="0" points="3739,6350 4659,6350 4659,6440 3739,6440 " />
							</g>
							<g class="beam" id="beam-000000036268660">
								<g class="note" id="op36-e43">
									<use xlink:href="#E0A4" x="5017" y="6980" height="720px" width="720px" />
								</g>
								<g class="note" id="op36-e44">
									<use xlink:href="#E0A4" x="5636" y="6980" height="720px" width="720px" />
								</g>
								<g class="note" id="op36-e45">
									<use xlink:href="#E0A4" x="6255" y="6980" height="720px" width="720px" />
									<g class="tie" id="tie-000000031623499">
										<path d="M6368,7124 C6683,7424 7313,7424 7629,7124 C7313,7364 6683,7364 6368,7124" style="fill-opacity:1.0; stroke-linecap:round; stroke-linejoin:round; stroke-opacity:1.0; stroke-width: 10" />
									</g>
								</g>
								<path d="M5233 6958 L5233 6370" style="stroke-width: 20;" />
								<path d="M5852 6958 L5852 6370" style="stroke-width: 20;" />
								<path d="M6471 6958 L6471 6370" style="stroke-width: 20;" />
								<polygon style="fill-rule:nonzero;" stroke-width="0" points="5223,6350 6481,6350 6481,6440 5223,6440 " />
							</g>
						</g>
					</g>
				</g>
				<g class="measure" id="measure-000000049417451">
					<g class="staff" id="staff-000000089175725">
						<path d="M6818 1940 L10329 1940" style="stroke-width: 30;" />
						<path d="M6818 2120 L10329 2120" style="stroke-width: 30;" />
						<path d="M6818 2300 L10329 2300" style="stroke-width: 30;" />
						<path d="M6818 2480 L10329 2480" style="stroke-width: 30;" />
						<path d="M6818 2660 L10329 2660" style="stroke-width: 30;" />
						<g class="layer" id="layer-000000047584598">
							<g class="note" id="op36-e46">
								<use xlink:href="#E0A4" x="7516" y="2210" height="720px" width="720px" />
								<rect x="7516" y="2232" width="20" height="608" rx="0" style="stroke-width: 0;" />
								<g class="accid" id="accid-000000208736220">
									<use xlink:href="#E260" x="7303" y="2210" height="720px" width="720px" />
								</g>
							</g>
							<g class="note" id="op36-e47">
								<use xlink:href="#E0A4" x="8416" y="2120" height="720px" width="720px" />
								<rect x="8416" y="2142" width="20" height="518" rx="0" style="stroke-width: 0;" />
								<use xlink:href="#E241" x="8416" y="2750" height="720px" width="720px" />
								<g class="accid" id="accid-000000100375565">
									<use xlink:href="#E260" x="8203" y="2120" height="720px" width="720px" />
								</g>
							</g>
							<g class="note" id="op36-e48">
								<use xlink:href="#E0A4" x="8866" y="2030" height="720px" width="720px" />
								<rect x="8866" y="2052" width="20" height="608" rx="0" style="stroke-width: 0;" />
							</g>
							<g class="note" id="op36-e49">
								<use xlink:href="#E0A4" x="9766" y="1940" height="720px" width="720px" />
								<rect x="9766" y="1962" width="20" height="518" rx="0" style="stroke-width: 0;" />
								<use xlink:href="#E241" x="9766" y="2570" height="720px" width="720px" />
							</g>
						</g>
					</g>
					<g class="staff" id="staff-000000145203936">
						<path d="M6818 4100 L10329 4100" style="stroke-width: 30;" />
						<path d="M6818 4280 L10329 4280" style="stroke-width: 30;" />
						<path d="M6818 4460 L10329 4460" style="stroke-width: 30;" />
						<path d="M6818 4640 L10329 4640" style="stroke-width: 30;" />
						<path d="M6818 4820 L10329 4820" style="stroke-width: 30;" />
						<g class="layer" id="layer-000000042135901">
							<g class="chord" id="chord-000000097210108">
								<rect x="7722" y="3740" width="20" height="878" rx="0" style="stroke-width: 0;" />
								<g class="note" id="op36-e50">
									<use xlink:href="#E0A4" x="7516" y="4370" height="720px" width="720px" />
								</g>
								<g class="note" id="op36-e51">
									<use xlink:href="#E0A4" x="7516" y="4640" height="720px" width="720px" />
								</g>
								<g class="accid" id="accid-000000163728001">
									<use xlink:href="#E260" x="7268" y="4370" height="720px" width="720px" />
								</g>
								<g class="accid" id="accid-000000205722628">
									<use xlink:href="#E260" x="7178" y="4640" height="720px" width="720px" />
								</g>
							</g>
							<g class="chord" id="chord-000000167924858">
								<rect x="8416" y="4212" width="20" height="1058" rx="0" style="stroke-width: 0;" />
								<g class="note" id="op36-e52">
									<use xlink:href="#E0A4" x="8416" y="4190" height="720px" width="720px" />
								</g>
								<g class="note" id="op36-e53">
									<use xlink:href="#E0A4" x="8416" y="4370" height="720px" width="720px" />
								</g>
								<g class="note" id="op36-e54">
									<use xlink:href="#E0A4" x="8416" y="4640" height="720px" width="720px" />
								</g>
								<g class="accid" id="accid-000000131548890">
									<use xlink:href="#E260" x="8168" y="4190" height="720px" width="720px" />
								</g>
								<g class="accid" id="accid-000000107794769">
									<use xlink:href="#E260" x="7988" y="4370" height="720px" width="720px" />
								</g>
							</g>
							<g class="note" id="op36-e55">
								<use xlink:href="#E0A4" x="9316" y="4100" height="720px" width="720px" />
								<rect x="9316" y="4122" width="20" height="518" rx="0" style="stroke-width: 0;" />
								<use xlink:href="#E241" x="9316" y="4730" height="720px" width="720px" />
								<g class="accid" id="accid-000000089491419">
									<use xlink:href="#E260" x="9103" y="4100" height="720px" width="720px" />
								</g>
							</g>
						</g>
					</g>
					<g class="staff" id="staff-000000033725358">
						<path d="M6818 6260 L10329 6260" style="stroke-width: 30;" />
						<path d="M6818 6440 L10329 6440" style="stroke-width: 30;" />
						<path d="M6818 6620 L10329 6620" style="stroke-width: 30;" />
						<path d="M6818 6800 L10329 6800" style="stroke-width: 30;" />
						<path d="M6818 6980 L10329 6980" style="stroke-width: 30;" />
						<g class="layer" id="layer-000000101162504">
							<g class="beam" id="beam-000000052429606">
								<g class="note" id="op36-e56">
									<use xlink:href="#E0A4" x="7516" y="6980" height="720px" width="720px" />
								</g>
								<g class="note" id="op36-e57">
									<use xlink:href="#E0A4" x="7966" y="6980" height="720px" width="720px" />
								</g>
								<g class="note" id="op36-e58">
									<use xlink:href="#E0A4" x="8416" y="6980" height="720px" width="720px" />
									<g class="tie" id="tie-000000208693425">
										<path d="M8529,7124 C8641,7324 8865,7324 8979,7124 C8865,7264 8641,7264 8529,7124" style="fill-opacity:1.0; stroke-linecap:round; stroke-linejoin:round; stroke-opacity:1.0; stroke-width: 10" />
									</g>
								</g>
								<path d="M7732 6958 L7732 6370" style="stroke-width: 20;" />
								<path d="M8182 6958 L8182 6370" style="stroke-width: 20;" />
								<path d="M8632 6958 L8632 6370" style="stroke-width: 20;" />
								<polygon style="fill-rule:nonzero;" stroke-width="0" points="7722,6350 8642,6350 8642,6440 7722,6440 " />
							</g>
							<g class="beam" id="beam-000000081431579">
								<g class="note" id="op36-e59">
									<use xlink:href="#E0A4" x="8866" y="6980" height="720px" width="720px" />
								</g>
								<g class="note" id="op36-e60">
									<use xlink:href="#E0A4" x="9316" y="6980" height="720px" width="720px" />
								</g>
								<g class="note" id="op36-e61">
									<use xlink:href="#E0A4" x="9766" y="6980" height="720px" width="720px" />
								</g>
								<path d="M9082 6958 L9082 6370" style="stroke-width: 20;" />
								<path d="M9532 6958 L9532 6370" style="stroke-width: 20;" />
								<path d="M9982 6958 L9982 6370" style="stroke-width: 20;" />
								<polygon style="fill-rule:nonzero;" stroke-width="0" points="9072,6350 9992,6350 9992,6440 9072,6440 " />
							</g>
						</g>
					</g>
				</g>
			</g>
		</g>
	</svg>
</svg>
